# xmcd CD database file
#
# Track frame offsets:
#	182
#	10347
#	22432
#	38052
#	52945
#	70440
#	90467
#	104367
#	119060
#	132212
#	149132
#	164830
#	184665
#	200570
#	214260
#
# Disc length: 3003 seconds
#
# Revision: 0
# Processed by: cddbd v1.5.2PL0 Copyright (c) Steve Scherf et al.
# Submitted via: CDex 1.51
#
DISCID=ed0bb90f
DTITLE=One Jump Ahead - One Jump Ahead
DYEAR=1992
DGENRE=Blues
TTITLE0=One Jump Ahead
TTITLE1=Gimmie That Wine
TTITLE2=Blueberry Hill
TTITLE3=Three Handed Woman
TTITLE4=I Missed My Turning
TTITLE5=Hot Licks Cold Liquor and Warm Hearted Women
TTITLE6=Bald headed Blues
TTITLE7=But I Was Cool
TTITLE8=Carnival
TTITLE9=Sh'e So Green
TTITLE10=When I Was In France With Frances
TTITLE11=It Should've Been Me
TTITLE12=Margarita
TTITLE13=Who Drank My Beer While I Was In The Rear
TTITLE14=Bitten By The Jitterbug
EXTD=YEAR: 1992
EXTT0=
EXTT1=
EXTT2=
EXTT3=
EXTT4=
EXTT5=
EXTT6=
EXTT7=
EXTT8=
EXTT9=
EXTT10=
EXTT11=
EXTT12=
EXTT13=
EXTT14=
PLAYORDER=
